<svg xmlns="http://www.w3.org/2000/svg" xmlns:xlink="http://www.w3.org/1999/xlink" version="1.1" width="256" height="256" viewBox="0 0 256 256" xml:space="preserve">

<defs>
</defs>
<g style="stroke: none; stroke-width: 0; stroke-dasharray: none; stroke-linecap: butt; stroke-linejoin: miter; stroke-miterlimit: 10; fill: none; fill-rule: nonzero; opacity: 1;" transform="translate(1.4065934065934016 1.4065934065934016) scale(2.81 2.81)" >
	<path d="M 89 79.016 H 64.941 V 62.192 c 0 -4.759 -3.871 -8.63 -8.63 -8.63 H 33.689 c -4.758 0 -8.63 3.871 -8.63 8.63 v 16.823 H 1 c -0.552 0 -1 0.447 -1 1 s 0.448 1 1 1 h 25.059 h 9.007 h 19.867 h 9.008 H 89 c 0.553 0 1 -0.447 1 -1 S 89.553 79.016 89 79.016 z M 53.934 71.947 H 36.066 v -5.068 h 17.867 V 71.947 z M 36.066 79.016 v -5.068 h 17.867 v 5.068 H 36.066 z M 55.934 79.016 v -6.068 v -7.068 c 0 -0.553 -0.447 -1 -1 -1 H 35.066 c -0.552 0 -1 0.447 -1 1 v 7.068 v 6.068 h -7.007 V 62.192 c 0 -3.655 2.974 -6.63 6.63 -6.63 h 22.623 c 3.655 0 6.63 2.975 6.63 6.63 v 16.823 H 55.934 z" style="stroke: none; stroke-width: 1; stroke-dasharray: none; stroke-linecap: butt; stroke-linejoin: miter; stroke-miterlimit: 10; fill: rgb(0,0,0); fill-rule: nonzero; opacity: 1;" transform=" matrix(1 0 0 1 0 0) " stroke-linecap="round" />
	<path d="M 33.288 36.478 c 0.567 5.967 5.603 10.651 11.716 10.651 c 6.155 0 11.214 -4.751 11.722 -10.777 l 4.32 -4.32 c 2.712 -2.712 2.712 -7.126 0 -9.839 L 50.023 11.171 c -0.001 -0.001 -0.002 -0.001 -0.002 -0.002 l -0.139 -0.139 c -2.722 -2.722 -7.152 -2.723 -9.875 0 L 28.861 22.175 c -1.319 1.319 -2.045 3.072 -2.045 4.938 s 0.727 3.619 2.045 4.938 L 33.288 36.478 z M 45.004 45.129 c -5.195 0 -9.444 -4.078 -9.743 -9.199 l 9.684 -9.684 l 9.797 9.798 C 54.386 41.112 50.161 45.129 45.004 45.129 z M 59.632 30.618 l -3.744 3.744 l -9.529 -9.53 l 3.725 -3.725 c 1.319 -1.319 2.046 -3.073 2.046 -4.938 c 0 -0.023 -0.003 -0.045 -0.003 -0.068 l 7.506 7.506 C 61.564 25.541 61.564 28.685 59.632 30.618 z M 30.275 23.589 L 41.42 12.444 c 0.972 -0.971 2.248 -1.457 3.524 -1.457 c 1.275 0 2.552 0.485 3.522 1.456 l 0.202 0.203 c 0.941 0.941 1.46 2.192 1.46 3.523 s -0.519 2.583 -1.46 3.524 L 34 34.362 l -3.726 -3.726 c -0.941 -0.941 -1.459 -2.192 -1.459 -3.523 S 29.334 24.531 30.275 23.589 z" style="stroke: none; stroke-width: 1; stroke-dasharray: none; stroke-linecap: butt; stroke-linejoin: miter; stroke-miterlimit: 10; fill: rgb(0,0,0); fill-rule: nonzero; opacity: 1;" transform=" matrix(1 0 0 1 0 0) " stroke-linecap="round" />
	<path d="M 15.214 60.319 c 2.487 4.51 2.492 8.746 0.014 12.952 c -0.28 0.476 -0.122 1.089 0.354 1.369 c 0.16 0.094 0.334 0.139 0.507 0.139 c 0.343 0 0.676 -0.176 0.863 -0.492 c 2.827 -4.8 2.832 -9.824 -0.007 -14.971 c -3.072 -5.052 -3.104 -9.188 -0.076 -12.672 c 3.823 -4.739 3.833 -9.777 0.029 -14.974 c -0.327 -0.445 -0.951 -0.543 -1.398 -0.216 c -0.445 0.326 -0.542 0.952 -0.216 1.398 c 3.247 4.435 3.256 8.536 0.052 12.508 C 11.735 49.501 11.702 54.546 15.214 60.319 z" style="stroke: none; stroke-width: 1; stroke-dasharray: none; stroke-linecap: butt; stroke-linejoin: miter; stroke-miterlimit: 10; fill: rgb(0,0,0); fill-rule: nonzero; opacity: 1;" transform=" matrix(1 0 0 1 0 0) " stroke-linecap="round" />
	<path d="M 72.886 60.318 c 2.487 4.511 2.492 8.747 0.015 12.953 c -0.28 0.477 -0.122 1.089 0.354 1.369 c 0.159 0.094 0.334 0.139 0.507 0.139 c 0.343 0 0.676 -0.176 0.862 -0.492 c 2.827 -4.8 2.832 -9.824 -0.007 -14.971 c -3.072 -5.052 -3.105 -9.188 -0.076 -12.672 c 3.822 -4.74 3.832 -9.777 0.028 -14.974 c -0.324 -0.445 -0.95 -0.542 -1.397 -0.216 c -0.445 0.326 -0.542 0.952 -0.216 1.398 c 3.246 4.435 3.255 8.536 0.052 12.508 C 69.407 49.501 69.374 54.546 72.886 60.318 z" style="stroke: none; stroke-width: 1; stroke-dasharray: none; stroke-linecap: butt; stroke-linejoin: miter; stroke-miterlimit: 10; fill: rgb(0,0,0); fill-rule: nonzero; opacity: 1;" transform=" matrix(1 0 0 1 0 0) " stroke-linecap="round" />
	<path d="M 84.267 73.757 c -0.28 0.477 -0.122 1.089 0.354 1.369 c 0.159 0.094 0.334 0.139 0.507 0.139 c 0.343 0 0.676 -0.176 0.862 -0.492 c 2.828 -4.801 2.833 -9.825 -0.007 -14.972 c -3.071 -5.051 -3.104 -9.187 -0.1 -12.644 c 0.362 -0.417 0.318 -1.049 -0.099 -1.411 c -0.416 -0.362 -1.047 -0.318 -1.411 0.099 c -3.599 4.141 -3.632 9.186 -0.121 14.958 C 86.74 65.313 86.745 69.55 84.267 73.757 z" style="stroke: none; stroke-width: 1; stroke-dasharray: none; stroke-linecap: butt; stroke-linejoin: miter; stroke-miterlimit: 10; fill: rgb(0,0,0); fill-rule: nonzero; opacity: 1;" transform=" matrix(1 0 0 1 0 0) " stroke-linecap="round" />
	<path d="M 4.507 73.757 c -0.28 0.477 -0.122 1.089 0.354 1.369 c 0.16 0.094 0.334 0.139 0.507 0.139 c 0.343 0 0.676 -0.176 0.863 -0.492 c 2.828 -4.8 2.832 -9.825 -0.007 -14.972 c -3.072 -5.051 -3.104 -9.187 -0.1 -12.644 c 0.362 -0.417 0.318 -1.049 -0.099 -1.411 c -0.417 -0.362 -1.048 -0.318 -1.411 0.099 c -3.599 4.141 -3.632 9.186 -0.121 14.958 C 6.981 65.313 6.986 69.551 4.507 73.757 z" style="stroke: none; stroke-width: 1; stroke-dasharray: none; stroke-linecap: butt; stroke-linejoin: miter; stroke-miterlimit: 10; fill: rgb(0,0,0); fill-rule: nonzero; opacity: 1;" transform=" matrix(1 0 0 1 0 0) " stroke-linecap="round" />
</g>
</svg>